<svg xmlns="http://www.w3.org/2000/svg" viewBox="0 0 900 700">
  <!-- Background -->
  <rect width="900" height="700" fill="#f8f9fa" />
  
  <!-- Title -->
  <text x="450" y="40" font-family="Arial" font-size="24" text-anchor="middle" font-weight="bold" fill="#333">Resume Tailoring Multi-Agent System Architecture</text>
  <text x="450" y="65" font-family="Arial" font-size="16" text-anchor="middle" fill="#666">(Using Gemini API and In-Memory Storage)</text>
  
  <!-- Layer labels -->
  <rect x="50" y="100" width="120" height="30" rx="5" fill="#e6e6e6" stroke="#999" stroke-width="1" />
  <text x="110" y="120" font-family="Arial" font-size="14" text-anchor="middle" font-weight="bold">Client Layer</text>
  
  <rect x="50" y="220" width="120" height="30" rx="5" fill="#e6e6e6" stroke="#999" stroke-width="1" />
  <text x="110" y="240" font-family="Arial" font-size="14" text-anchor="middle" font-weight="bold">API Gateway</text>
  
  <rect x="50" y="340" width="120" height="30" rx="5" fill="#e6e6e6" stroke="#999" stroke-width="1" />
  <text x="110" y="360" font-family="Arial" font-size="14" text-anchor="middle" font-weight="bold">Orchestration</text>
  
  <rect x="50" y="460" width="120" height="30" rx="5" fill="#e6e6e6" stroke="#999" stroke-width="1" />
  <text x="110" y="480" font-family="Arial" font-size="14" text-anchor="middle" font-weight="bold">Agent Layer</text>
  
  <rect x="50" y="580" width="120" height="30" rx="5" fill="#e6e6e6" stroke="#999" stroke-width="1" />
  <text x="110" y="600" font-family="Arial" font-size="14" text-anchor="middle" font-weight="bold">Storage Layer</text>
  
  <!-- Client Layer -->
  <rect x="250" y="90" width="550" height="50" rx="5" fill="#d1e7dd" stroke="#198754" stroke-width="2" />
  <text x="525" y="120" font-family="Arial" font-size="16" text-anchor="middle" font-weight="bold">Streamlit Web Interface</text>
  
  <!-- API Gateway Layer -->
  <rect x="250" y="200" width="550" height="70" rx="5" fill="#cfe2ff" stroke="#0d6efd" stroke-width="2" />
  <text x="525" y="225" font-family="Arial" font-size="16" text-anchor="middle" font-weight="bold">FastAPI Service</text>
  <text x="525" y="245" font-family="Arial" font-size="12" text-anchor="middle">Endpoints: /upload-resume, /upload-jd, /generate-resume, /health</text>
  <text x="525" y="260" font-family="Arial" font-size="12" text-anchor="middle">Middleware: Rate limiting, Authentication, Request validation</text>
  
  <!-- Orchestration Layer -->
  <rect x="250" y="315" width="550" height="90" rx="5" fill="#f8d7da" stroke="#dc3545" stroke-width="2" />
  <text x="525" y="335" font-family="Arial" font-size="16" text-anchor="middle" font-weight="bold">LangChain Orchestrator</text>
  <rect x="270" y="345" width="250" height="50" rx="5" fill="#ffffff" stroke="#6c757d" stroke-width="1" />
  <text x="395" y="365" font-family="Arial" font-size="14" text-anchor="middle" font-weight="bold">Agent Scheduler</text>
  <text x="395" y="385" font-family="Arial" font-size="12" text-anchor="middle">Sequential/Parallel Execution</text>
  
  <rect x="530" y="345" width="250" height="50" rx="5" fill="#ffffff" stroke="#6c757d" stroke-width="1" />
  <text x="655" y="365" font-family="Arial" font-size="14" text-anchor="middle" font-weight="bold">Context Manager</text>
  <text x="655" y="385" font-family="Arial" font-size="12" text-anchor="middle">Shared Memory & State Management</text>
  
  <!-- Agent Layer -->
  <rect x="200" y="430" width="160" height="90" rx="5" fill="#fff3cd" stroke="#ffc107" stroke-width="2" />
  <text x="280" y="450" font-family="Arial" font-size="14" text-anchor="middle" font-weight="bold">Resume Parser</text>
  <text x="280" y="470" font-family="Arial" font-size="12" text-anchor="middle">Technology:</text>
  <text x="280" y="485" font-family="Arial" font-size="12" text-anchor="middle">Gemini Pro</text>
  <text x="280" y="500" font-family="Arial" font-size="12" text-anchor="middle">Python-Markdown</text>
  <text x="280" y="515" font-family="Arial" font-size="12" text-anchor="middle">pdfminer.six</text>
  
  <rect x="380" y="430" width="160" height="90" rx="5" fill="#fff3cd" stroke="#ffc107" stroke-width="2" />
  <text x="460" y="450" font-family="Arial" font-size="14" text-anchor="middle" font-weight="bold">JD Analyzer</text>
  <text x="460" y="470" font-family="Arial" font-size="12" text-anchor="middle">Technology:</text>
  <text x="460" y="485" font-family="Arial" font-size="12" text-anchor="middle">Gemini Pro</text>
  <text x="460" y="500" font-family="Arial" font-size="12" text-anchor="middle">KeyBERT</text>
  <text x="460" y="515" font-family="Arial" font-size="12" text-anchor="middle">NLTK</text>
  
  <rect x="560" y="430" width="160" height="90" rx="5" fill="#fff3cd" stroke="#ffc107" stroke-width="2" />
  <text x="640" y="450" font-family="Arial" font-size="14" text-anchor="middle" font-weight="bold">Content Creator</text>
  <text x="640" y="470" font-family="Arial" font-size="12" text-anchor="middle">Technology:</text>
  <text x="640" y="485" font-family="Arial" font-size="12" text-anchor="middle">Gemini Pro</text>
  <text x="640" y="500" font-family="Arial" font-size="12" text-anchor="middle">Jinja2 Templates</text>
  <text x="640" y="515" font-family="Arial" font-size="12" text-anchor="middle">spaCy</text>
  
  <rect x="740" y="430" width="160" height="90" rx="5" fill="#fff3cd" stroke="#ffc107" stroke-width="2" />
  <text x="820" y="450" font-family="Arial" font-size="14" text-anchor="middle" font-weight="bold">LaTeX Engineer</text>
  <text x="820" y="470" font-family="Arial" font-size="12" text-anchor="middle">Technology:</text>
  <text x="820" y="485" font-family="Arial" font-size="12" text-anchor="middle">Gemini Pro</text>
  <text x="820" y="500" font-family="Arial" font-size="12" text-anchor="middle">PyLaTeX</text>
  <text x="820" y="515" font-family="Arial" font-size="12" text-anchor="middle">pdflatex CLI</text>
  
  <!-- Storage Layer -->
  <rect x="200" y="550" width="280" height="100" rx="5" fill="#e2e3e5" stroke="#6c757d" stroke-width="2" />
  <text x="340" y="570" font-family="Arial" font-size="16" text-anchor="middle" font-weight="bold">In-Memory Storage</text>
  <rect x="220" y="580" width="120" height="60" rx="5" fill="#ffffff" stroke="#6c757d" stroke-width="1" />
  <text x="280" y="600" font-family="Arial" font-size="14" text-anchor="middle" font-weight="bold">Redis</text>
  <text x="280" y="620" font-family="Arial" font-size="12" text-anchor="middle">Session Cache</text>
  <text x="280" y="635" font-family="Arial" font-size="12" text-anchor="middle">TTL: 30 min</text>
  
  <rect x="350" y="580" width="120" height="60" rx="5" fill="#ffffff" stroke="#6c757d" stroke-width="1" />
  <text x="410" y="600" font-family="Arial" font-size="14" text-anchor="middle" font-weight="bold">LMDB</text>
  <text x="410" y="620" font-family="Arial" font-size="12" text-anchor="middle">Document Store</text>
  <text x="410" y="635" font-family="Arial" font-size="12" text-anchor="middle">Max size: 2GB</text>
  
  <rect x="620" y="550" width="280" height="100" rx="5" fill="#e2e3e5" stroke="#6c757d" stroke-width="2" />
  <text x="760" y="570" font-family="Arial" font-size="16" text-anchor="middle" font-weight="bold">Temporary File System</text>
  <rect x="640" y="580" width="120" height="60" rx="5" fill="#ffffff" stroke="#6c757d" stroke-width="1" />
  <text x="700" y="600" font-family="Arial" font-size="14" text-anchor="middle" font-weight="bold">tmp directory</text>
  <text x="700" y="620" font-family="Arial" font-size="12" text-anchor="middle">PDF documents</text>
  <text x="700" y="635" font-family="Arial" font-size="12" text-anchor="middle">Auto-cleanup: 1h</text>
  
  <rect x="770" y="580" width="120" height="60" rx="5" fill="#ffffff" stroke="#6c757d" stroke-width="1" />
  <text x="830" y="600" font-family="Arial" font-size="14" text-anchor="middle" font-weight="bold">memfs</text>
  <text x="830" y="620" font-family="Arial" font-size="12" text-anchor="middle">LaTeX working files</text>
  <text x="830" y="635" font-family="Arial" font-size="12" text-anchor="middle">In-memory filesystem</text>
  
  <!-- Connection Lines -->
  <!-- Vertical connections between layers -->
  <line x1="525" y1="140" x2="525" y2="200" stroke="#6c757d" stroke-width="2" stroke-dasharray="5,5" />
  <line x1="525" y1="270" x2="525" y2="315" stroke="#6c757d" stroke-width="2" stroke-dasharray="5,5" />
  
  <!-- Orchestration to Agents -->
  <line x1="280" y1="405" x2="280" y2="430" stroke="#6c757d" stroke-width="2" />
  <line x1="460" y1="405" x2="460" y2="430" stroke="#6c757d" stroke-width="2" />
  <line x1="640" y1="405" x2="640" y2="430" stroke="#6c757d" stroke-width="2" />
  <line x1="820" y1="405" x2="820" y2="430" stroke="#6c757d" stroke-width="2" />
  
  <path d="M 525 405 C 525 415 280 415 280 415" fill="none" stroke="#6c757d" stroke-width="2" />
  <path d="M 525 405 C 525 415 460 415 460 415" fill="none" stroke="#6c757d" stroke-width="2" />
  <path d="M 525 405 C 525 415 640 415 640 415" fill="none" stroke="#6c757d" stroke-width="2" />
  <path d="M 525 405 C 525 415 820 415 820 415" fill="none" stroke="#6c757d" stroke-width="2" />
  
  <!-- Agents to Storage -->
  <line x1="280" y1="520" x2="280" y2="580" stroke="#6c757d" stroke-width="2" />
  <line x1="460" y1="520" x2="410" y2="580" stroke="#6c757d" stroke-width="2" />
  <line x1="640" y1="520" x2="700" y2="580" stroke="#6c757d" stroke-width="2" />
  <line x1="820" y1="520" x2="830" y2="580" stroke="#6c757d" stroke-width="2" />
  
  <!-- External Systems -->
  <rect x="60" y="660" width="140" height="30" rx="5" fill="#f8d7da" stroke="#dc3545" stroke-width="2" />
  <text x="130" y="680" font-family="Arial" font-size="14" text-anchor="middle">Gemini API</text>
  
  <line x1="200" y1="675" x2="280" y2="520" stroke="#dc3545" stroke-width="1" stroke-dasharray="5,3" />
  <line x1="200" y1="675" x2="460" y2="520" stroke="#dc3545" stroke-width="1" stroke-dasharray="5,3" />
  <line x1="200" y1="675" x2="640" y2="520" stroke="#dc3545" stroke-width="1" stroke-dasharray="5,3" />
  <line x1="200" y1="675" x2="820" y2="520" stroke="#dc3545" stroke-width="1" stroke-dasharray="5,3" />
  
  <!-- Flow arrows -->
  <polygon points="525,193 520,200 530,200" fill="#6c757d" />
  <polygon points="525,308 520,315 530,315" fill="#6c757d" />
  <polygon points="280,423 275,430 285,430" fill="#6c757d" />
  <polygon points="460,423 455,430 465,430" fill="#6c757d" />
  <polygon points="640,423 635,430 645,430" fill="#6c757d" />
  <polygon points="820,423 815,430 825,430" fill="#6c757d" />
  
  <!-- Data flow -->
  <path d="M 280 520 C 280 530 460 530 460 520" fill="none" stroke="#0d6efd" stroke-width="1.5" stroke-dasharray="3,2" />
  <polygon points="453,523 460,520 453,517" fill="#0d6efd" />
  
  <path d="M 460 520 C 460 530 640 530 640 520" fill="none" stroke="#0d6efd" stroke-width="1.5" stroke-dasharray="3,2" />
  <polygon points="633,523 640,520 633,517" fill="#0d6efd" />
  
  <path d="M 640 520 C 640 530 820 530 820 520" fill="none" stroke="#0d6efd" stroke-width="1.5" stroke-dasharray="3,2" />
  <polygon points="813,523 820,520 813,517" fill="#0d6efd" />
  
  <!-- Tech stack note -->
  <rect x="30" y="30" width="220" height="50" rx="5" fill="#fff3cd" stroke="#ffc107" stroke-width="1" />
  <text x="140" y="50" font-family="Arial" font-size="14" text-anchor="middle" font-weight="bold">Tech Stack:</text>
  <text x="140" y="70" font-family="Arial" font-size="12" text-anchor="middle">Python 3.10, Gemini Pro, LangChain, Redis</text>
</svg>